<svg width="1648" height="774" viewBox="0 0 1648 774" fill="none" xmlns="http://www.w3.org/2000/svg">
<path d="M405.85 398.335C405.85 435.692 375.566 465.976 338.209 465.976C300.851 465.976 270.567 435.692 270.567 398.335C270.567 360.977 300.851 330.693 338.209 330.693C343.191 330.693 348.047 331.232 352.722 332.254C353.046 332.325 353.385 332.233 353.627 332.006L563.365 135.58C563.567 135.391 563.681 135.127 563.681 134.85V83.137C563.681 82.8429 563.811 82.5636 564.035 82.3736L659.74 1.39272C660.39 0.842788 661.386 1.30475 661.386 2.15611V81.6732C661.386 82.2255 661.834 82.6732 662.386 82.6732H741.645C742.536 82.6732 742.982 83.7504 742.352 84.3803L654.163 172.569C653.975 172.757 653.721 172.862 653.456 172.862H601.676C601.41 172.862 601.154 172.969 600.966 173.158L401.911 373.845C401.634 374.124 401.547 374.538 401.683 374.906C404.378 382.206 405.85 390.098 405.85 398.335Z" fill="white"/>
<path d="M338.209 601.26C450.281 601.26 541.134 510.407 541.134 398.335C541.134 374.617 537.065 351.85 529.587 330.693L482.385 383.303C482.894 388.244 483.155 393.259 483.155 398.335C483.155 478.387 418.26 543.282 338.209 543.282C258.157 543.282 193.262 478.387 193.262 398.335C193.262 318.283 258.157 253.389 338.209 253.389C345.878 253.389 353.408 253.984 360.756 255.132L408.604 207.952C386.674 199.84 362.959 195.409 338.209 195.409C226.136 195.409 135.283 286.262 135.283 398.335C135.283 510.407 226.136 601.26 338.209 601.26Z" fill="white"/>
<path d="M676.417 398.335C676.417 585.122 524.996 736.543 338.209 736.543C151.421 736.543 0 585.122 0 398.335C0 211.547 151.421 60.126 338.209 60.126C401.209 60.126 460.186 77.3518 510.687 107.35L470.695 154.136C431.348 132.532 386.205 120.252 338.209 120.252C185.383 120.252 61.4925 244.754 61.4925 398.335C61.4925 551.915 185.383 676.417 338.209 676.417C491.035 676.417 614.925 551.915 614.925 398.335C614.925 356.068 605.542 316.004 588.754 280.132L637.984 241.599C662.532 288.452 676.417 341.772 676.417 398.335Z" fill="white"/>
<circle cx="766.606" cy="691.449" r="30.063" fill="white"/>
<circle cx="1617.06" cy="691.063" r="30.063" fill="white"/>
<path d="M914.719 722V74.7273H1090.44V336.418H1099.29L1293.98 74.7273H1498.78L1280.07 362.966L1503.84 722H1293.98L1148.6 479.273L1090.44 555.125V722H914.719Z" fill="white"/>
</svg>
