<svg width="743" height="736" viewBox="0 0 743 736" fill="none" xmlns="http://www.w3.org/2000/svg">
<path d="M405.85 397.18C405.85 434.538 375.566 464.822 338.209 464.822C300.851 464.822 270.567 434.538 270.567 397.18C270.567 359.823 300.851 329.539 338.209 329.539C343.191 329.539 348.047 330.077 352.722 331.099C353.046 331.17 353.385 331.079 353.627 330.852L563.365 134.426C563.567 134.237 563.681 133.972 563.681 133.696V81.9828C563.681 81.6887 563.811 81.4095 564.035 81.2195L659.74 0.238536C660.39 -0.311394 661.386 0.150563 661.386 1.00192V80.519C661.386 81.0713 661.834 81.519 662.386 81.519H741.645C742.536 81.519 742.982 82.5962 742.352 83.2262L654.163 171.415C653.975 171.603 653.721 171.708 653.456 171.708H601.676C601.41 171.708 601.154 171.815 600.966 172.004L401.911 372.691C401.634 372.97 401.547 373.384 401.683 373.752C404.378 381.052 405.85 388.944 405.85 397.18Z" fill="black"/>
<path d="M338.209 600.106C450.281 600.106 541.134 509.253 541.134 397.18C541.134 373.463 537.065 350.696 529.587 329.539L482.385 382.149C482.894 387.09 483.155 392.105 483.155 397.181C483.155 477.233 418.26 542.128 338.209 542.128C258.157 542.128 193.262 477.233 193.262 397.181C193.262 317.129 258.157 252.234 338.209 252.234C345.878 252.234 353.408 252.83 360.756 253.978L408.604 206.798C386.674 198.686 362.959 194.255 338.209 194.255C226.136 194.255 135.283 285.108 135.283 397.18C135.283 509.253 226.136 600.106 338.209 600.106Z" fill="black"/>
<path d="M676.417 397.18C676.417 583.968 524.996 735.389 338.209 735.389C151.421 735.389 0 583.968 0 397.18C0 210.393 151.421 58.9718 338.209 58.9718C401.209 58.9718 460.186 76.1976 510.687 106.196L470.695 152.982C431.348 131.378 386.205 119.098 338.209 119.098C185.383 119.098 61.4925 243.6 61.4925 397.18C61.4925 550.761 185.383 675.263 338.209 675.263C491.035 675.263 614.925 550.761 614.925 397.18C614.925 354.914 605.542 314.85 588.754 278.978L637.984 240.444C662.532 287.298 676.417 340.618 676.417 397.18Z" fill="black"/>
</svg>
