<svg width="170" height="166" viewBox="0 0 170 166" fill="none" xmlns="http://www.w3.org/2000/svg">
<g clip-path="url(#clip0_6_16)">
<rect width="170" height="166" rx="83" fill="url(#paint0_linear_6_16)"/>
<ellipse cx="86.024" cy="81.463" rx="87.0482" ry="85.5617" fill="black"/>
<path d="M144.909 112.204C151.907 101.786 162.012 74.5975 146.446 49.1852M98.8251 12.8086C101.044 12.9794 107.223 14.1407 114.187 17.4198M34.307 126.549C37.7207 129.282 45.1625 137.616 47.6203 149.093M47.6203 112.204C46.7669 114.765 44.548 121.426 49.1564 130.648M119.819 89.1481C119.136 92.5638 117.976 102.367 124.94 108.105C133.644 115.278 145.421 120.914 152.59 128.086M25.0902 56.8704C23.3833 60.286 20.4817 67.8346 22.5299 70.7037M22.5299 70.7037C26.4556 72.07 34.307 75.4173 34.307 77.8765M22.5299 70.7037H12.2891C13.4838 74.2901 17.2045 81.5654 22.5299 81.9753M20.4818 87.6111V90.6852M50.6927 102.469C42.3292 106.397 25.8071 111.896 26.6264 102.469C27.4457 93.042 51.5461 69.5082 63.4939 58.9198C83.9758 38.9383 101.946 31.9046 108.042 29.7161C116.747 26.5912 142.861 21.0062 133.645 40.7099C126.002 57.0482 124.598 56.0165 123.404 53.284" stroke="url(#paint1_linear_6_16)" stroke-width="4" stroke-linecap="round"/>
<path d="M40.4518 65.5803L31.747 51.2346C30.8936 50.0391 30.4157 46.1111 35.3313 39.963C41.4759 32.2778 63.4939 10.2469 80.3915 10.2469C81.0742 9.73459 87.0481 13.6284 93.1927 21.0062C81.757 27.4959 55.1989 45.4963 40.4518 65.5803Z" fill="url(#paint2_linear_6_16)" stroke="black" stroke-width="2" stroke-linecap="round"/>
<path d="M97.375 27.4399L97.6581 27.8175C98.0101 28.2872 97.8839 28.9576 97.3851 29.2671L72.7107 44.5741L95.9774 27.2378C96.4193 26.9084 97.0444 26.9988 97.375 27.4399Z" fill="url(#paint3_linear_6_16)" stroke="url(#paint4_linear_6_16)" stroke-linecap="round"/>
<path d="M92.6801 23.5577L92.9889 23.9147C93.3728 24.3586 93.2936 25.0363 92.8176 25.3798L69.2704 42.3717L91.2718 23.4537C91.6897 23.0943 92.3196 23.1408 92.6801 23.5577Z" fill="url(#paint5_linear_6_16)" stroke="url(#paint6_linear_6_16)" stroke-linecap="round"/>
<path d="M129.548 66.6049C126.988 66.0926 126.988 61.9938 125.452 61.9938L110.09 75.3148L135.181 78.3889C135.392 78.3889 135.446 78.0968 135.249 78.0211L122.892 73.2654L129.548 66.6049Z" fill="black"/>
<path d="M120.121 112.716C117.365 109.9 115.363 107.247 114.699 105.031C83.5661 119.786 71.3452 148.226 69.1264 160.601C71.3327 160.995 73.8898 161.303 76.8071 161.465C79.2649 132.425 106.707 116.866 120.121 112.716Z" fill="black"/>
<path d="M94.7288 160.74C96.6928 160.501 98.7407 160.208 100.873 159.852C101.912 159.679 102.936 159.486 103.946 159.275C106.191 155.313 110.431 148.913 115.89 142.514C115.912 142.487 115.936 142.459 115.96 142.432C116.712 141.552 117.487 140.673 118.283 139.8C121.434 136.344 124.913 132.992 128.595 130.136C130.858 128.381 133.197 126.814 135.585 125.525C133.549 124.046 131.479 122.494 129.47 120.914C127.218 121.98 125.02 123.313 122.891 124.845C120.022 126.911 117.279 129.338 114.699 131.963C112.259 134.445 109.966 137.104 107.85 139.8C105.122 143.276 102.689 146.815 100.62 150.117C98.0544 154.211 96.0476 157.942 94.7288 160.74Z" fill="black"/>
<path d="M118.283 139.8C117.487 140.673 116.712 141.552 115.96 142.432C115.936 142.459 115.912 142.487 115.89 142.514C113.243 145.742 120.127 152.688 120.843 153.693C123.488 152.48 128.992 149.683 132.2 147.883C127.652 149.444 120.072 143.955 118.283 139.8Z" fill="black"/>
<path d="M128.595 130.136C125.082 133.722 135.585 144.994 136.205 145.391C141.628 141.685 143.93 138.637 145.934 135.84C138.97 141.223 131.473 134.28 128.595 130.136Z" fill="black"/>
<path d="M112.651 49.1852C103.946 47.1358 86.0239 47.1358 70.6626 66.6049C60.0622 80.0399 56.0389 101.731 55.7798 121.938C55.6084 135.314 57.0862 148.039 59.3975 157.29C60.898 158.362 64.1034 159.704 69.1264 160.601C71.3452 148.226 83.5661 119.786 114.699 105.031C111.626 94.784 115.723 86.0741 124.428 84.537C131.391 83.3074 141.667 86.0741 145.934 87.6111C143.032 80.7798 135.229 67.7418 129.548 66.6049L122.892 73.2654L135.249 78.0211C135.446 78.0968 135.392 78.3889 135.181 78.3889L110.09 75.3148L125.452 61.9938C125.983 60.841 119.614 50.8247 112.651 49.1852Z" fill="white"/>
<path d="M120.121 112.716C106.707 116.866 79.2649 132.425 76.8071 161.465C81.7369 161.739 87.6954 161.594 94.7288 160.74C96.0476 157.942 98.0544 154.211 100.62 150.117C102.689 146.815 105.122 143.276 107.85 139.8C109.966 137.104 112.259 134.445 114.699 131.963C117.279 129.338 120.022 126.911 122.891 124.845C125.02 123.313 127.218 121.98 129.47 120.914C126.008 118.189 122.727 115.379 120.121 112.716Z" fill="white"/>
<path d="M133.644 147.043C134.569 146.478 135.42 145.928 136.205 145.391C135.585 144.994 125.082 133.722 128.595 130.136C124.913 132.992 121.434 136.344 118.283 139.8C120.072 143.955 127.652 149.444 132.2 147.883C132.761 147.568 133.252 147.283 133.644 147.043Z" fill="white"/>
<path d="M147.47 133.722C144.356 131.664 140.055 128.772 135.585 125.525C133.197 126.814 130.858 128.381 128.595 130.136C131.473 134.28 138.97 141.223 145.934 135.84C146.449 135.12 146.945 134.416 147.47 133.722Z" fill="white"/>
<path d="M103.946 159.275C110.135 157.984 115.789 156.014 120.843 153.693C120.127 152.688 113.243 145.742 115.89 142.514C110.431 148.913 106.191 155.313 103.946 159.275Z" fill="white"/>
<path d="M125.452 61.9938C125.983 60.841 119.614 50.8247 112.651 49.1852C103.946 47.1358 86.0239 47.1358 70.6626 66.6049C60.0622 80.0399 56.0389 101.731 55.7798 121.938M125.452 61.9938C126.988 61.9938 126.988 66.0926 129.548 66.6049M125.452 61.9938C124.931 60.7442 124.92 63.1467 125.452 61.9938ZM125.452 61.9938L110.09 75.3148L135.181 78.3889V78.3889C135.392 78.3889 135.446 78.0968 135.249 78.0211L122.892 73.2654L129.548 66.6049M114.699 105.031C111.626 94.784 115.723 86.0741 124.428 84.537C131.391 83.3074 141.667 86.0741 145.934 87.6111C143.032 80.7798 135.229 67.7418 129.548 66.6049M114.699 105.031C115.363 107.247 117.365 109.9 120.121 112.716M114.699 105.031C83.5661 119.786 71.3452 148.226 69.1264 160.601M55.7798 121.938C55.6084 135.314 57.0862 148.039 59.3975 157.29C60.898 158.362 64.1034 159.704 69.1264 160.601M55.7798 121.938C60.058 120.743 69.2288 117.225 71.6866 112.716M61.4456 142.432C61.8553 142.432 68.4436 136.284 71.6866 133.21M120.121 112.716C106.707 116.866 79.2649 132.425 76.8071 161.465M120.121 112.716C122.727 115.379 126.008 118.189 129.47 120.914M76.8071 161.465C81.7369 161.739 87.6954 161.594 94.7288 160.74M76.8071 161.465C73.8898 161.303 71.3327 160.995 69.1264 160.601M94.7288 160.74C96.6928 160.501 98.7407 160.208 100.873 159.852C101.912 159.679 102.936 159.486 103.946 159.275M94.7288 160.74C96.0476 157.942 98.0544 154.211 100.62 150.117M129.47 120.914C131.479 122.494 133.549 124.046 135.585 125.525M129.47 120.914C127.218 121.98 125.02 123.313 122.891 124.845M103.946 159.275C110.135 157.984 115.789 156.014 120.843 153.693M103.946 159.275C106.191 155.313 110.431 148.913 115.89 142.514M135.585 125.525C140.055 128.772 144.356 131.664 147.47 133.722C146.945 134.416 146.449 135.12 145.934 135.84M135.585 125.525C133.197 126.814 130.858 128.381 128.595 130.136M120.843 153.693C120.127 152.688 113.243 145.742 115.89 142.514M120.843 153.693C123.488 152.48 128.992 149.683 132.2 147.883M118.283 139.8C117.487 140.673 116.712 141.552 115.96 142.432C115.936 142.459 115.912 142.487 115.89 142.514M118.283 139.8C121.434 136.344 124.913 132.992 128.595 130.136M118.283 139.8C120.072 143.955 127.652 149.444 132.2 147.883M133.644 147.043C134.569 146.478 135.42 145.928 136.205 145.391M133.644 147.043C133.213 147.426 132.727 147.702 132.2 147.883M133.644 147.043C133.252 147.283 132.761 147.568 132.2 147.883M136.205 145.391C135.585 144.994 125.082 133.722 128.595 130.136M136.205 145.391C141.628 141.685 143.93 138.637 145.934 135.84M128.595 130.136C131.473 134.28 138.97 141.223 145.934 135.84M100.62 150.117C98.144 150.724 92.3734 150.628 89.0962 145.391M100.62 150.117C102.689 146.815 105.122 143.276 107.85 139.8M107.85 139.8C105.183 140.506 99.4396 140.485 97.8011 134.747M107.85 139.8C109.966 137.104 112.259 134.445 114.699 131.963M114.699 131.963C112.416 132.037 107.85 130.853 107.85 125.525M114.699 131.963C117.279 129.338 120.022 126.911 122.891 124.845M122.891 124.845C121.355 124.559 118.385 123.168 118.795 119.889" stroke="black" stroke-width="4" stroke-linecap="round"/>
<path d="M125.964 83C117.43 83.1708 100.771 90.6852 100.362 115.278L114.187 107.08C108.042 91.0951 119.478 84.3663 125.964 83Z" fill="#D9D9D9"/>
<path d="M120.843 154.728C109.578 151.313 86.5363 143.252 84.4881 138.333C82.4399 133.415 77.1487 151.654 74.7591 161.389L100.362 159.852C104.458 159.852 115.723 156.949 120.843 154.728Z" fill="#D9D9D9"/>
<path d="M78.8555 140.383C66.9077 126.549 50.4881 92.0173 80.3917 64.5556C86.3656 59.2613 101.488 48.7753 114.187 49.1852C104.629 46.6235 82.3374 48.5704 65.5423 74.8024C61.6165 82.146 56.0181 100.727 56.8374 118.352C57.5201 128.599 56.4278 150.425 58.8857 155.753L69.6387 158.827L78.8555 140.383Z" fill="#D9D9D9"/>
<path d="M50.1808 53.7963L40.9639 64.5556L31.7471 49.1852L34.3073 42.5247C38.7451 41.6708 48.1326 42.7295 50.1808 53.7963Z" fill="#D9D9D9"/>
<path d="M74.7591 161.389C77.1487 151.654 82.4399 133.415 84.4881 138.333C86.5362 143.252 109.578 151.313 120.843 154.728C115.723 156.949 104.458 159.852 100.362 159.852M74.7591 161.389C81.5865 161.389 96.2652 159.852 100.362 159.852M74.7591 161.389L100.362 159.852M125.964 83C117.43 83.1708 100.771 90.6852 100.362 115.278L114.187 107.08C108.042 91.0951 119.478 84.3663 125.964 83ZM78.8555 140.383C66.9077 126.549 50.4881 92.0173 80.3917 64.5556C86.3656 59.2613 101.488 48.7753 114.187 49.1852C104.629 46.6235 82.3374 48.5704 65.5423 74.8024C61.6165 82.146 56.0181 100.727 56.8374 118.352C57.5201 128.599 56.4278 150.425 58.8857 155.753L69.6387 158.827L78.8555 140.383ZM50.1808 53.7963L40.9639 64.5556L31.7471 49.1852L34.3073 42.5247C38.7451 41.6708 48.1326 42.7295 50.1808 53.7963Z" stroke="#D9D9D9" stroke-width="2" stroke-linecap="round"/>
<path d="M129.548 66.6049C126.988 66.0926 126.988 61.9938 125.452 61.9938L110.09 75.3148L135.181 78.3889C135.392 78.3889 135.446 78.0968 135.249 78.0211L122.892 73.2654L129.548 66.6049Z" fill="black"/>
<path d="M120.121 112.716C117.365 109.9 115.363 107.247 114.699 105.031C83.5661 119.786 71.3452 148.226 69.1264 160.601C71.3327 160.995 73.8898 161.303 76.8071 161.465C79.2649 132.425 106.707 116.866 120.121 112.716Z" fill="black"/>
<path d="M94.7288 160.74C96.6928 160.501 98.7407 160.208 100.873 159.852C101.912 159.679 102.936 159.486 103.946 159.275C106.191 155.313 110.431 148.913 115.89 142.514C115.912 142.487 115.936 142.459 115.96 142.432C116.712 141.552 117.487 140.673 118.283 139.8C121.434 136.344 124.913 132.992 128.595 130.136C130.858 128.381 133.197 126.814 135.585 125.525C133.549 124.046 131.479 122.494 129.47 120.914C127.218 121.98 125.02 123.313 122.891 124.845C120.022 126.911 117.279 129.338 114.699 131.963C112.259 134.445 109.966 137.104 107.85 139.8C105.122 143.276 102.689 146.815 100.62 150.117C98.0544 154.211 96.0476 157.942 94.7288 160.74Z" fill="black"/>
<path d="M118.283 139.8C117.487 140.673 116.712 141.552 115.96 142.432C115.936 142.459 115.912 142.487 115.89 142.514C113.243 145.742 120.127 152.688 120.843 153.693C123.488 152.48 128.992 149.683 132.2 147.883C127.652 149.444 120.072 143.955 118.283 139.8Z" fill="black"/>
<path d="M128.595 130.136C125.082 133.722 135.585 144.994 136.205 145.391C141.628 141.685 143.93 138.637 145.934 135.84C138.97 141.223 131.473 134.28 128.595 130.136Z" fill="black"/>
<path d="M125.452 61.9938C125.983 60.841 119.614 50.8247 112.651 49.1852C103.946 47.1358 86.0239 47.1358 70.6626 66.6049C60.0622 80.0399 56.0389 101.731 55.7798 121.938M125.452 61.9938C126.988 61.9938 126.988 66.0926 129.548 66.6049M125.452 61.9938C124.931 60.7442 124.92 63.1467 125.452 61.9938ZM125.452 61.9938L110.09 75.3148L135.181 78.3889V78.3889C135.392 78.3889 135.446 78.0968 135.249 78.0211L122.892 73.2654L129.548 66.6049M114.699 105.031C111.626 94.784 115.723 86.0741 124.428 84.537C131.391 83.3074 141.667 86.0741 145.934 87.6111C143.032 80.7798 135.229 67.7418 129.548 66.6049M114.699 105.031C115.363 107.247 117.365 109.9 120.121 112.716M114.699 105.031C83.5661 119.786 71.3452 148.226 69.1264 160.601M55.7798 121.938C55.6084 135.314 57.0862 148.039 59.3975 157.29C60.898 158.362 64.1034 159.704 69.1264 160.601M55.7798 121.938C60.058 120.743 69.2288 117.225 71.6866 112.716M61.4456 142.432C61.8553 142.432 68.4436 136.284 71.6866 133.21M120.121 112.716C106.707 116.866 79.2649 132.425 76.8071 161.465M120.121 112.716C122.727 115.379 126.008 118.189 129.47 120.914M76.8071 161.465C81.7369 161.739 87.6954 161.594 94.7288 160.74M76.8071 161.465C73.8898 161.303 71.3327 160.995 69.1264 160.601M94.7288 160.74C96.6928 160.501 98.7407 160.208 100.873 159.852C101.912 159.679 102.936 159.486 103.946 159.275M94.7288 160.74C96.0476 157.942 98.0544 154.211 100.62 150.117M129.47 120.914C131.479 122.494 133.549 124.046 135.585 125.525M129.47 120.914C127.218 121.98 125.02 123.313 122.891 124.845M103.946 159.275C110.135 157.984 115.789 156.014 120.843 153.693M103.946 159.275C106.191 155.313 110.431 148.913 115.89 142.514M135.585 125.525C140.055 128.772 144.356 131.664 147.47 133.722C146.945 134.416 146.449 135.12 145.934 135.84M135.585 125.525C133.197 126.814 130.858 128.381 128.595 130.136M120.843 153.693C120.127 152.688 113.243 145.742 115.89 142.514M120.843 153.693C123.488 152.48 128.992 149.683 132.2 147.883M118.283 139.8C117.487 140.673 116.712 141.552 115.96 142.432C115.936 142.459 115.912 142.487 115.89 142.514M118.283 139.8C121.434 136.344 124.913 132.992 128.595 130.136M118.283 139.8C120.072 143.955 127.652 149.444 132.2 147.883M133.644 147.043C134.569 146.478 135.42 145.928 136.205 145.391M133.644 147.043C133.213 147.426 132.727 147.702 132.2 147.883M133.644 147.043C133.252 147.283 132.761 147.568 132.2 147.883M136.205 145.391C135.585 144.994 125.082 133.722 128.595 130.136M136.205 145.391C141.628 141.685 143.93 138.637 145.934 135.84M128.595 130.136C131.473 134.28 138.97 141.223 145.934 135.84M100.62 150.117C98.144 150.724 92.3734 150.628 89.0962 145.391M100.62 150.117C102.689 146.815 105.122 143.276 107.85 139.8M107.85 139.8C105.183 140.506 99.4396 140.485 97.8011 134.747M107.85 139.8C109.966 137.104 112.259 134.445 114.699 131.963M114.699 131.963C112.416 132.037 107.85 130.853 107.85 125.525M114.699 131.963C117.279 129.338 120.022 126.911 122.891 124.845M122.891 124.845C121.355 124.559 118.385 123.168 118.795 119.889" stroke="black" stroke-width="4" stroke-linecap="round"/>
<path d="M40.4518 65.5803L31.747 51.2346C30.8936 50.0391 30.4157 46.1111 35.3313 39.963C41.4759 32.2778 63.4939 10.2469 80.3915 10.2469C81.0742 9.73459 87.0481 13.6284 93.1927 21.0062C81.757 27.4959 55.1989 45.4963 40.4518 65.5803Z" stroke="black" stroke-width="2" stroke-linecap="round"/>
<ellipse cx="94.2167" cy="66.0926" rx="8.19277" ry="8.70988" fill="black"/>
<ellipse cx="66.5662" cy="104.519" rx="3.07229" ry="3.07407" fill="#D9D9D9"/>
<ellipse cx="83.4638" cy="118.352" rx="2.56024" ry="2.56173" fill="#D9D9D9"/>
<ellipse cx="77.3193" cy="128.599" rx="2.56024" ry="2.56173" fill="#D9D9D9"/>
</g>
<defs>
<linearGradient id="paint0_linear_6_16" x1="85" y1="0" x2="85" y2="166" gradientUnits="userSpaceOnUse">
<stop stop-color="#097A92"/>
<stop offset="0.12" stop-color="#69B27E"/>
<stop offset="0.23" stop-color="#F2D603"/>
<stop offset="0.39" stop-color="#FF9F38"/>
<stop offset="0.46" stop-color="#F55544"/>
<stop offset="0.615" stop-color="#9575B3"/>
<stop offset="0.785" stop-color="#6B96DD"/>
<stop offset="1" stop-color="#7BB5DC"/>
</linearGradient>
<linearGradient id="paint1_linear_6_16" x1="83.4705" y1="12.8086" x2="83.4705" y2="149.093" gradientUnits="userSpaceOnUse">
<stop stop-color="#097A92"/>
<stop offset="0.12" stop-color="#69B27E"/>
<stop offset="0.23" stop-color="#F2D603"/>
<stop offset="0.39" stop-color="#FF9F38"/>
<stop offset="0.46" stop-color="#F55544"/>
<stop offset="0.615" stop-color="#9575B3"/>
<stop offset="0.785" stop-color="#6B96DD"/>
<stop offset="1" stop-color="#7BB5DC"/>
</linearGradient>
<linearGradient id="paint2_linear_6_16" x1="62.1983" y1="10.2021" x2="62.1983" y2="65.5803" gradientUnits="userSpaceOnUse">
<stop stop-color="#097A92"/>
<stop offset="0.12" stop-color="#69B27E"/>
<stop offset="0.23" stop-color="#F2D603"/>
<stop offset="0.39" stop-color="#FF9F38"/>
<stop offset="0.46" stop-color="#F55544"/>
<stop offset="0.615" stop-color="#9575B3"/>
<stop offset="0.785" stop-color="#6B96DD"/>
<stop offset="1" stop-color="#7BB5DC"/>
</linearGradient>
<linearGradient id="paint3_linear_6_16" x1="85.5119" y1="26.642" x2="85.5119" y2="44.5741" gradientUnits="userSpaceOnUse">
<stop stop-color="#097A92"/>
<stop offset="0.12" stop-color="#69B27E"/>
<stop offset="0.23" stop-color="#F2D603"/>
<stop offset="0.39" stop-color="#FF9F38"/>
<stop offset="0.46" stop-color="#F55544"/>
<stop offset="0.615" stop-color="#9575B3"/>
<stop offset="0.785" stop-color="#6B96DD"/>
<stop offset="1" stop-color="#7BB5DC"/>
</linearGradient>
<linearGradient id="paint4_linear_6_16" x1="85.5119" y1="26.642" x2="85.5119" y2="44.5741" gradientUnits="userSpaceOnUse">
<stop stop-color="#097A92"/>
<stop offset="0.12" stop-color="#69B27E"/>
<stop offset="0.23" stop-color="#F2D603"/>
<stop offset="0.39" stop-color="#FF9F38"/>
<stop offset="0.46" stop-color="#F55544"/>
<stop offset="0.615" stop-color="#9575B3"/>
<stop offset="0.785" stop-color="#6B96DD"/>
<stop offset="1" stop-color="#7BB5DC"/>
</linearGradient>
<linearGradient id="paint5_linear_6_16" x1="80.7903" y1="23.5898" x2="82.0419" y2="41.4781" gradientUnits="userSpaceOnUse">
<stop stop-color="#097A92"/>
<stop offset="0.12" stop-color="#69B27E"/>
<stop offset="0.23" stop-color="#F2D603"/>
<stop offset="0.39" stop-color="#FF9F38"/>
<stop offset="0.46" stop-color="#F55544"/>
<stop offset="0.615" stop-color="#9575B3"/>
<stop offset="0.785" stop-color="#6B96DD"/>
<stop offset="1" stop-color="#7BB5DC"/>
</linearGradient>
<linearGradient id="paint6_linear_6_16" x1="80.7903" y1="23.5898" x2="82.0419" y2="41.4781" gradientUnits="userSpaceOnUse">
<stop stop-color="#097A92"/>
<stop offset="0.12" stop-color="#69B27E"/>
<stop offset="0.23" stop-color="#F2D603"/>
<stop offset="0.39" stop-color="#FF9F38"/>
<stop offset="0.46" stop-color="#F55544"/>
<stop offset="0.615" stop-color="#9575B3"/>
<stop offset="0.785" stop-color="#6B96DD"/>
<stop offset="1" stop-color="#7BB5DC"/>
</linearGradient>
<clipPath id="clip0_6_16">
<rect width="170" height="166" rx="83" fill="white"/>
</clipPath>
</defs>
</svg>
